<svg width="174" height="26" viewBox="0 0 174 26" fill="none" xmlns="http://www.w3.org/2000/svg">
<g clip-path="url(#clip0_23_1175)">
<g clip-path="url(#clip1_23_1175)">
<g clip-path="url(#clip2_23_1175)">
<g clip-path="url(#clip3_23_1175)">
<path d="M46.2001 22.9027V5.09831H49.3069L55.9746 14.1558H54.4929L61.0172 5.09831H64.124V22.9027H60.8499V8.80257L62.1165 9.11325L55.3532 18.123H54.9709L48.3749 9.11325L49.4503 8.80257V22.9027H46.2001ZM73.6254 23.1894C72.3508 23.1894 71.1878 22.8947 70.1362 22.3052C69.1006 21.7157 68.2722 20.9111 67.6508 19.8915C67.0454 18.8718 66.7427 17.7087 66.7427 16.4023C66.7427 15.0958 67.0454 13.9328 67.6508 12.9131C68.2722 11.8934 69.1006 11.0889 70.1362 10.4994C71.1718 9.90986 72.3349 9.61511 73.6254 9.61511C74.9 9.61511 76.0551 9.90986 77.0907 10.4994C78.1263 11.0889 78.9468 11.8934 79.5522 12.9131C80.1736 13.9168 80.4843 15.0799 80.4843 16.4023C80.4843 17.7087 80.1736 18.8718 79.5522 19.8915C78.9309 20.9111 78.1024 21.7157 77.0668 22.3052C76.0312 22.8947 74.8841 23.1894 73.6254 23.1894ZM73.6254 20.3216C74.3264 20.3216 74.9398 20.1543 75.4656 19.8198C76.0073 19.4852 76.4295 19.0231 76.7322 18.4336C77.0509 17.8282 77.2102 17.1511 77.2102 16.4023C77.2102 15.6375 77.0509 14.9684 76.7322 14.3948C76.4295 13.8053 76.0073 13.3433 75.4656 13.0087C74.9398 12.6582 74.3264 12.4829 73.6254 12.4829C72.9085 12.4829 72.2791 12.6582 71.7374 13.0087C71.1957 13.3433 70.7656 13.8053 70.4469 14.3948C70.1442 14.9684 69.9928 15.6375 69.9928 16.4023C69.9928 17.1511 70.1442 17.8282 70.4469 18.4336C70.7656 19.0231 71.1957 19.4852 71.7374 19.8198C72.2791 20.1543 72.9085 20.3216 73.6254 20.3216ZM88.9048 23.1894C87.6461 23.1894 86.5229 22.8947 85.5351 22.3052C84.5473 21.6998 83.7666 20.8793 83.1931 19.8437C82.6195 18.8081 82.3327 17.6609 82.3327 16.4023C82.3327 15.1277 82.6195 13.9806 83.1931 12.9609C83.7666 11.9412 84.5473 11.1287 85.5351 10.5233C86.5388 9.91783 87.6541 9.61511 88.8809 9.61511C89.8687 9.61511 90.745 9.81427 91.5097 10.2126C92.2904 10.595 92.9038 11.1366 93.3499 11.8377L92.8719 12.4829V4.81152H96.0026V22.9027H93.0392V20.3933L93.3738 21.0147C92.9277 21.7157 92.3063 22.2574 91.5097 22.6398C90.7131 23.0062 89.8448 23.1894 88.9048 23.1894ZM89.2394 20.3216C89.9563 20.3216 90.5856 20.1543 91.1273 19.8198C91.669 19.4852 92.0913 19.0231 92.394 18.4336C92.7126 17.8442 92.8719 17.167 92.8719 16.4023C92.8719 15.6535 92.7126 14.9843 92.394 14.3948C92.0913 13.7894 91.669 13.3194 91.1273 12.9848C90.5856 12.6502 89.9563 12.4829 89.2394 12.4829C88.5384 12.4829 87.909 12.6582 87.3514 13.0087C86.7938 13.3433 86.3556 13.8053 86.037 14.3948C85.7343 14.9684 85.5829 15.6375 85.5829 16.4023C85.5829 17.167 85.7343 17.8442 86.037 18.4336C86.3556 19.0231 86.7938 19.4852 87.3514 19.8198C87.909 20.1543 88.5384 20.3216 89.2394 20.3216ZM105.081 23.1894C103.743 23.1894 102.572 22.8867 101.568 22.2813C100.564 21.6759 99.7836 20.8554 99.2259 19.8198C98.6683 18.7842 98.3895 17.637 98.3895 16.3784C98.3895 15.0719 98.6683 13.9168 99.2259 12.9131C99.7995 11.8934 100.572 11.0889 101.544 10.4994C102.532 9.90986 103.631 9.61511 104.842 9.61511C105.862 9.61511 106.754 9.7824 107.519 10.117C108.299 10.4516 108.961 10.9136 109.502 11.5031C110.044 12.0926 110.458 12.7697 110.745 13.5345C111.032 14.2833 111.175 15.0958 111.175 15.9721C111.175 16.1952 111.159 16.4262 111.127 16.6652C111.112 16.9041 111.072 17.1113 111.008 17.2865H100.971V14.8967H109.239L107.758 16.0199C107.901 15.287 107.861 14.6338 107.638 14.0602C107.431 13.4867 107.081 13.0326 106.587 12.698C106.109 12.3634 105.527 12.1961 104.842 12.1961C104.189 12.1961 103.607 12.3634 103.098 12.698C102.588 13.0167 102.197 13.4946 101.927 14.1319C101.672 14.7533 101.576 15.5101 101.64 16.4023C101.576 17.1989 101.68 17.9079 101.95 18.5292C102.237 19.1347 102.651 19.6047 103.193 19.9393C103.751 20.2738 104.388 20.4411 105.105 20.4411C105.822 20.4411 106.427 20.2898 106.921 19.987C107.431 19.6843 107.829 19.2781 108.116 18.7682L110.65 20.0109C110.395 20.6323 109.996 21.182 109.455 21.6599C108.913 22.1379 108.268 22.5123 107.519 22.7832C106.786 23.054 105.973 23.1894 105.081 23.1894ZM113.548 22.9027V9.9019H116.488V12.7936L116.249 12.3634C116.551 11.3916 117.021 10.7144 117.659 10.3321C118.312 9.94969 119.093 9.75851 120.001 9.75851H120.766V12.5307H119.642C118.75 12.5307 118.033 12.8095 117.491 13.3672C116.95 13.9089 116.679 14.6736 116.679 15.6614V22.9027H113.548ZM122.487 22.9027V9.9019H125.427V12.459L125.188 12.005C125.49 11.2243 125.984 10.6348 126.669 10.2365C127.37 9.82223 128.183 9.61511 129.107 9.61511C130.063 9.61511 130.907 9.82223 131.64 10.2365C132.389 10.6507 132.971 11.2322 133.385 11.9811C133.799 12.7139 134.006 13.5663 134.006 14.5382V22.9027H130.876V15.2791C130.876 14.7055 130.764 14.2116 130.541 13.7973C130.318 13.3831 130.007 13.0645 129.609 12.8414C129.227 12.6024 128.773 12.4829 128.247 12.4829C127.737 12.4829 127.283 12.6024 126.885 12.8414C126.486 13.0645 126.176 13.3831 125.952 13.7973C125.729 14.2116 125.618 14.7055 125.618 15.2791V22.9027H122.487ZM136.653 22.9027V9.9019H139.784V22.9027H136.653ZM136.653 8.44409V5.09831H139.784V8.44409H136.653ZM141.551 22.9027V20.3694L149.103 11.6226L149.581 12.698H141.886V9.9019H152.353V12.459L144.945 21.2059L144.467 20.1304H152.401V22.9027H141.551ZM160.346 23.1894C159.008 23.1894 157.837 22.8867 156.833 22.2813C155.83 21.6759 155.049 20.8554 154.491 19.8198C153.934 18.7842 153.655 17.637 153.655 16.3784C153.655 15.0719 153.934 13.9168 154.491 12.9131C155.065 11.8934 155.838 11.0889 156.809 10.4994C157.797 9.90986 158.897 9.61511 160.107 9.61511C161.127 9.61511 162.019 9.7824 162.784 10.117C163.565 10.4516 164.226 10.9136 164.768 11.5031C165.309 12.0926 165.724 12.7697 166.01 13.5345C166.297 14.2833 166.44 15.0958 166.44 15.9721C166.44 16.1952 166.425 16.4262 166.393 16.6652C166.377 16.9041 166.337 17.1113 166.273 17.2865H156.236V14.8967H164.505L163.023 16.0199C163.166 15.287 163.127 14.6338 162.903 14.0602C162.696 13.4867 162.346 13.0326 161.852 12.698C161.374 12.3634 160.792 12.1961 160.107 12.1961C159.454 12.1961 158.873 12.3634 158.363 12.698C157.853 13.0167 157.463 13.4946 157.192 14.1319C156.937 14.7533 156.841 15.5101 156.905 16.4023C156.841 17.1989 156.945 17.9079 157.216 18.5292C157.502 19.1347 157.917 19.6047 158.458 19.9393C159.016 20.2738 159.653 20.4411 160.37 20.4411C161.087 20.4411 161.693 20.2898 162.187 19.987C162.696 19.6843 163.095 19.2781 163.381 18.7682L165.915 20.0109C165.66 20.6323 165.261 21.182 164.72 21.6599C164.178 22.1379 163.533 22.5123 162.784 22.7832C162.051 23.054 161.239 23.1894 160.346 23.1894Z" fill="#112D19"/>
<path d="M20.4197 25.89C23.1695 25.89 25.4457 23.642 24.9369 20.9398C24.6178 19.2456 24.135 17.5847 23.4933 15.9823C22.2353 12.8412 20.3917 9.98705 18.0673 7.58299C15.743 5.17888 12.9836 3.27184 9.94683 1.97074C8.44754 1.3284 6.89512 0.839956 5.31193 0.510016C2.62001 -0.0509789 0.368042 2.2291 0.368042 4.97883V20.9111C0.368042 23.6609 2.59715 25.89 5.34689 25.89H20.4197Z" fill="#007F73"/>
<g style="mix-blend-mode:multiply">
<path d="M14.0114 25.89C11.2617 25.89 8.98537 23.642 9.49428 20.9398C9.81334 19.2456 10.2962 17.5847 10.9378 15.9823C12.1958 12.8412 14.0394 9.98705 16.3638 7.58299C18.6881 5.17888 21.4475 3.27184 24.4843 1.97074C25.9836 1.3284 27.536 0.839956 29.1192 0.510016C31.8111 -0.0509789 34.0631 2.2291 34.0631 4.97883V20.9111C34.0631 23.6609 31.8339 25.89 29.0842 25.89H14.0114Z" fill="#3DEBC1"/>
</g>
</g>
</g>
</g>
</g>
<defs>
<clipPath id="clip0_23_1175">
<rect width="174" height="26" fill="white"/>
</clipPath>
<clipPath id="clip1_23_1175">
<rect width="173.306" height="25.89" fill="white" transform="translate(0.346985)"/>
</clipPath>
<clipPath id="clip2_23_1175">
<rect width="173.306" height="25.89" fill="white" transform="translate(0.346985)"/>
</clipPath>
<clipPath id="clip3_23_1175">
<rect width="173.264" height="25.89" fill="white" transform="translate(0.368042)"/>
</clipPath>
</defs>
</svg>
